<?xml version="1.0" encoding="UTF-8"?>
<svg id="Layer_2" data-name="Layer 2" xmlns="http://www.w3.org/2000/svg" viewBox="0 0 539.08 187.78">
  <defs>
    <style>
      .cls-1 {
        fill: #e0dfdf;
      }

      .cls-2 {
        fill: #1d161e;
      }

      .cls-3 {
        fill: #d4d4d4;
      }
    </style>
  </defs>
  <g id="Layer_7" data-name="Layer 7">
    <rect class="cls-2" width="539.08" height="187.78" rx="17.67" ry="17.67"/>
  </g>
  <g id="Layer_6_copy" data-name="Layer 6 copy">
    <path class="cls-3" d="M149.18,28.81l-34.98,39.39v9.89c0,1.74-1.41,3.16-3.16,3.16s-3.16-1.42-3.16-3.16v-28.96c0-1.75,1.41-3.16,3.16-3.16,.88,0,1.66,.35,2.24,.92,.57,.58,.92,1.36,.92,2.24v4.28l31.61-27.98c2.24-2,5.37,1.13,3.37,3.37Z"/>
    <path class="cls-3" d="M84.22,70.21c-1.75,0-3.16,1.42-3.16,3.16v9.18l-21.99,19.46c-8.77-1.89-19.49,1.81-26.02,8.23-9.16,9.02-12.89,26.18-3.97,35.09,8.91,8.92,26.07,5.2,35.09-3.97,6.49-6.6,10.2-17.48,8.17-26.3l8.71-9.81v1.87c0,1.75,1.41,3.16,3.16,3.16s3.16-1.41,3.16-3.16v-33.76c0-.87-.35-1.66-.92-2.23-.57-.58-1.37-.93-2.24-.93Zm-27.84,63.35c-5.79,5.69-16.26,8.95-20.36,4.85-4.1-4.1-.84-14.56,4.85-20.36,5.86-5.95,16.53-9.25,20.65-5.14,4.11,4.12,.82,14.8-5.14,20.65Z"/>
    <path class="cls-3" d="M73.6,147.84c.58-.62,1.6-1.02,2.35-.69,.97,.42,1.05,1.88,1.29,2.69,.99,3.39,7.86,5.46,12.77,4.98,2.75-.27,6.76-1.52,15.29-11.53,6.25-7.33,9.67-13.18,11.71-16.38,3.15-4.91,19.59-30.5,35.68-28.19,10.1,1.45,17.43,13.96,18.6,16.26,1.13,2.22,1.97,5.66,2.11,6.2,.96,3.89,.4,4.34,.23,4.45-.47,.28-1.29-.26-1.87-.7-4.3-3.26-6.89-9.65-10.78-13.57-.73-.74-3.81-3.84-7.47-4.56-10.63-2.08-23.8,16.36-33.22,29.48-5.68,7.91-9.3,14.19-17.66,20-3.97,2.76-8.92,5.36-14.97,5.26-1.85-.03-6.22-.15-10.06-3.16-.41-.32-3.99-3.19-4.58-7.38-.12-.83-.29-2.23,.58-3.16Z"/>
    <g>
      <path class="cls-1" d="M239.33,105.2c0,3.43-1.18,6.37-3.53,8.84-2.35,2.46-5.95,3.69-10.78,3.69h-21.63v-6.26h4.95v-30.33h-4.95v-6.26h21.36c4.04,0,7.22,.92,9.53,2.77,2.31,1.85,3.46,4.31,3.46,7.38,0,2.24-.68,4.2-2.04,5.87-1.36,1.67-3.23,2.73-5.6,3.17v.26c3.08,.48,5.38,1.71,6.92,3.69,1.54,1.98,2.31,4.37,2.31,7.19Zm-9.43-18.33c0-2.24-.65-3.76-1.95-4.55-1.3-.79-2.96-1.19-4.98-1.19h-7.32v11.74h6.86c2.51,0,4.36-.56,5.57-1.68,1.21-1.12,1.81-2.56,1.81-4.32Zm1.58,18.07c0-4.22-2.42-6.33-7.25-6.33h-8.57v12.86h7.58c5.49,0,8.24-2.18,8.24-6.53Z"/>
      <path class="cls-1" d="M246.12,90.29c2.2-1.05,4.15-1.78,5.87-2.18,1.71-.4,3.69-.59,5.93-.59,3.3,0,6.01,.84,8.14,2.51,2.13,1.67,3.2,4.18,3.2,7.52v13.32c0,1.76,.73,2.64,2.18,2.64,.4,0,.9-.09,1.52-.26l.07,3.89c-1.45,.83-3.03,1.25-4.75,1.25-3.74,0-5.76-1.96-6.07-5.87v-.13c-.88,1.54-2.12,2.92-3.73,4.15-1.61,1.23-3.59,1.85-5.97,1.85-2.07,0-4.1-.63-6.1-1.88-2-1.25-3-3.44-3-6.56,0-3.65,1.45-6.05,4.35-7.22,2.9-1.16,6.04-1.75,9.43-1.75,.83,0,1.69,.02,2.57,.07,.88,.04,1.69,.11,2.44,.2v-1.65c0-1.76-.31-3.34-.92-4.75-.62-1.41-2.15-2.11-4.62-2.11-.92,0-1.79,.07-2.6,.2-.81,.13-1.59,.4-2.34,.79l-1.19,4.55-5.67-.59,1.25-7.39Zm16.09,15.69v-1.06c-.75-.09-1.52-.17-2.31-.26-.79-.09-1.6-.13-2.44-.13-1.76,0-3.33,.31-4.71,.92-1.38,.62-2.08,1.85-2.08,3.69,0,2.68,1.43,4.02,4.29,4.02,1.67,0,3.25-.6,4.75-1.81,1.49-1.21,2.33-3,2.51-5.37Z"/>
      <path class="cls-1" d="M303.42,107.11c-.31,2.64-1.47,5.18-3.5,7.62-2.02,2.44-5.28,3.66-9.76,3.66-4.22,0-7.66-1.27-10.32-3.82-2.66-2.55-3.99-6.26-3.99-11.14s1.37-8.64,4.12-11.54c2.75-2.9,6.34-4.35,10.78-4.35,1.76,0,3.52,.22,5.28,.66,1.76,.44,3.5,1.17,5.21,2.18l1.19,8.31-5.67,.59-.99-4.88c-1.63-.79-3.34-1.19-5.14-1.19-4.92,0-7.38,3.3-7.38,9.89s2.53,9.63,7.58,9.63c3.69,0,5.91-2.24,6.66-6.73l5.93,1.12Z"/>
      <path class="cls-1" d="M339.69,117.73h-14.77v-5.41h3.43l-6.2-7.39h-4.75v7.39h3.3v5.41h-14.77v-5.41h4.42v-34.55h-4.68v-5.41h11.74v27.5h5.08l5.21-6.26h-3.89v-5.47h14.44v5.47h-3.69l-6.99,8.18,8.97,10.55h3.17v5.41Z"/>
      <path class="cls-1" d="M368.24,108.89c0,3.08-1.26,5.43-3.79,7.06-2.53,1.63-5.75,2.44-9.66,2.44-2.11,0-4.23-.24-6.36-.73-2.13-.48-4.06-1.21-5.77-2.18l1.06-7.65,5.54,.53-.07,3.82c.83,.35,1.72,.59,2.67,.73,.94,.13,1.79,.2,2.54,.2,1.8,0,3.37-.32,4.71-.96,1.34-.64,2.01-1.59,2.01-2.87s-.61-2.11-1.81-2.64c-1.21-.53-2.71-.93-4.52-1.22-1.8-.29-3.61-.68-5.41-1.19-1.8-.5-3.31-1.34-4.52-2.51s-1.81-2.91-1.81-5.24c0-3.43,1.31-5.78,3.92-7.06,2.62-1.28,5.37-1.91,8.28-1.91,3.83,0,7.43,.9,10.81,2.7l.73,7.32-5.54,.66-.59-4.42c-1.71-.66-3.45-.99-5.21-.99-1.36,0-2.52,.28-3.46,.82-.95,.55-1.42,1.42-1.42,2.6s.59,2.09,1.78,2.57c1.19,.48,2.66,.87,4.42,1.15,1.76,.29,3.52,.68,5.28,1.19,1.76,.51,3.23,1.34,4.42,2.51,1.19,1.17,1.78,2.91,1.78,5.24Z"/>
      <path class="cls-1" d="M396,109.02c-.84,6.24-4.31,9.36-10.42,9.36-3.17,0-5.68-.83-7.55-2.51-1.87-1.67-2.8-4-2.8-6.99v-15.56h-4.35v-5.21h4.35v-9.17h7.06v9.17h11.01v5.21h-11.01v14.44c0,3.12,1.36,4.68,4.09,4.68,.75,0,1.58-.27,2.51-.82,.92-.55,1.56-1.97,1.91-4.25l5.21,1.65Z"/>
      <path class="cls-1" d="M413.81,117.73h-15.83v-5.41h4.42v-18.73h-4.68v-5.47h11.67v24.2h4.42v5.41Zm-11.8-35.74v-7.78h7.19v7.78h-7.19Z"/>
      <path class="cls-1" d="M440.84,109.02c-.84,6.24-4.31,9.36-10.42,9.36-3.17,0-5.68-.83-7.55-2.51-1.87-1.67-2.8-4-2.8-6.99v-15.56h-4.35v-5.21h4.35v-9.17h7.06v9.17h11.01v5.21h-11.01v14.44c0,3.12,1.36,4.68,4.09,4.68,.75,0,1.58-.27,2.51-.82,.92-.55,1.56-1.97,1.91-4.25l5.21,1.65Z"/>
      <path class="cls-1" d="M469.99,107.11c-.31,2.64-1.47,5.18-3.5,7.62-2.02,2.44-5.28,3.66-9.76,3.66-4.22,0-7.66-1.27-10.32-3.82-2.66-2.55-3.99-6.26-3.99-11.14s1.37-8.64,4.12-11.54,6.34-4.35,10.78-4.35c1.76,0,3.52,.22,5.28,.66,1.76,.44,3.5,1.17,5.21,2.18l1.19,8.31-5.67,.59-.99-4.88c-1.63-.79-3.34-1.19-5.14-1.19-4.92,0-7.38,3.3-7.38,9.89s2.53,9.63,7.58,9.63c3.69,0,5.91-2.24,6.66-6.73l5.93,1.12Z"/>
      <path class="cls-1" d="M508.49,117.73h-15.89v-5.41h4.42v-11.61c0-2.81-.53-4.8-1.58-5.97-1.05-1.16-2.48-1.75-4.29-1.75-2.15,0-3.87,.7-5.14,2.11-1.28,1.41-1.96,3.12-2.04,5.14v12.07h4.35v5.41h-15.83v-5.41h4.42v-34.55h-4.42v-5.41h11.47v20.64c2.02-3.65,5.3-5.47,9.83-5.47,2.86,0,5.29,.86,7.29,2.57,2,1.71,3,4.4,3,8.04v14.18h4.42v5.41Z"/>
    </g>
  </g>
</svg>