<?xml version="1.0" encoding="UTF-8"?>
<svg id="Layer_2" data-name="Layer 2" xmlns="http://www.w3.org/2000/svg" viewBox="0 0 539.08 187.78">
  <defs>
    <style>
      .cls-1 {
        fill: #1d161e;
      }

      .cls-2 {
        fill: #d4d4d4;
      }
    </style>
  </defs>
  <g id="Layer_6_copy" data-name="Layer 6 copy">
    <rect class="cls-1" width="539.08" height="187.78" rx="17.67" ry="17.67"/>
    <g id="needle">
      <path id="eye" class="cls-2" d="M57.61,42.93c-.33,1.47-.44,2.94-.49,4.43-.03,.64-.01,1.57-.02,2.22,0,2.22,.06,4.43,.16,6.65,.07,1.48,.16,2.95,.31,4.43,.15,1.53,1.37,2.8,2.96,2.96,1.82,.18,3.44-1.14,3.63-2.96,.15-1.48,.24-2.95,.31-4.43,.1-2.22,.15-4.43,.16-6.65,.01-2.22-.03-4.47-.51-6.65-.83-3.4-5.65-3.44-6.51,0h0Z"/>
      <path id="needle-body" class="cls-2" d="M74.68,35.06c-2.76-5.31-7.54-8.11-13.82-8.11s-11.06,2.81-13.82,8.11c-1.96,3.78-2.92,8.79-2.92,15.32,0,13.05,.71,26.84,2.11,40.99,1.12,11.31,2.68,22.88,4.63,34.39,3.33,19.61,6.62,32.06,6.76,32.58,.39,1.47,1.72,2.49,3.23,2.49s2.84-1.02,3.23-2.49c.14-.52,3.42-12.97,6.76-32.58,1.96-11.51,3.51-23.08,4.63-34.39,1.4-14.15,2.11-27.94,2.11-40.99,0-6.53-.95-11.54-2.92-15.32h0Zm-5.84,55.59c-1.1,11.15-2.64,22.55-4.56,33.89-1.18,6.96-2.37,13.06-3.41,18.01-1.04-4.95-2.23-11.04-3.41-18.01-1.93-11.34-3.46-22.75-4.56-33.89-1.37-13.92-2.07-27.47-2.07-40.28,0-5.35,.73-9.47,2.16-12.23,.76-1.47,1.71-2.54,2.88-3.27,1.33-.83,2.96-1.23,4.99-1.23s3.66,.4,4.99,1.23c1.18,.73,2.12,1.8,2.88,3.27,1.44,2.76,2.16,6.88,2.16,12.23,0,12.81-.7,26.36-2.07,40.28Z"/>
    </g>
    <g id="thread">
      <path id="thread-10" class="cls-2" d="M44.54,128.46c-5.31,.5-10.59,2.26-14.89,5.5-.44,.34-.85,.67-1.26,1.06-3.04,3.24,1.41,7.76,4.69,4.77,.54-.48,1.32-1.04,2.02-1.46,2.83-1.72,6.09-2.75,9.4-3.13,.41-.05,.82-.09,1.22-.12-.39-2.1-.79-4.31-1.19-6.62h0Z"/>
      <path id="thread-9" class="cls-2" d="M82.74,149.44c-.63,0-1.27-.18-1.84-.55-.55-.36-1.11-.73-1.66-1.1-4.69-3.1-9.53-6.3-15.01-8.78-1.68-.76-2.43-2.74-1.67-4.43,.76-1.68,2.74-2.43,4.43-1.67,5.97,2.7,11.04,6.05,15.95,9.29,.55,.36,1.1,.73,1.65,1.09,1.54,1.02,1.97,3.09,.96,4.64-.64,.98-1.71,1.51-2.8,1.51h0Z"/>
      <path id="thread-8" class="cls-2" d="M114.42,160.83c-7.76,0-14.72-1.62-21.9-5.1-1.66-.81-2.36-2.81-1.55-4.47,.81-1.66,2.81-2.36,4.47-1.55,6.23,3.02,12.26,4.43,18.98,4.43,6.17,0,11.92-.92,17.08-2.75,1.74-.62,3.65,.3,4.27,2.04,.62,1.74-.3,3.65-2.04,4.27-5.88,2.08-12.37,3.13-19.31,3.13h0Z"/>
      <path id="thread-7" class="cls-2" d="M144.2,151.67c-1,0-1.99-.45-2.65-1.3-1.13-1.46-.86-3.57,.61-4.69,3.98-3.07,7.08-6.81,9.22-11.13,2.13-4.29,3.2-8.96,3.2-13.88,0-2.46-.17-4.85-.52-7.11-.28-1.83,.98-3.53,2.81-3.81s3.53,.98,3.81,2.81c.39,2.59,.59,5.32,.59,8.11,0,5.95-1.31,11.62-3.9,16.85-2.59,5.24-6.34,9.77-11.13,13.46-.61,.47-1.33,.7-2.04,.7h0Z"/>
      <path id="thread-6" class="cls-2" d="M153.36,103.89c-1.2,0-2.36-.65-2.96-1.79-1.72-3.27-3.99-6.2-6.74-8.7-2.56-2.32-5.55-4.29-8.89-5.85-6.06-2.83-13.29-4.27-20.34-4.05-.03,0-.07,0-.11,0-1.8,0-3.29-1.43-3.34-3.24-.06-1.85,1.39-3.39,3.24-3.45,3.91-.12,7.84,.19,11.71,.93,4.12,.79,8.05,2.05,11.68,3.74,3.95,1.84,7.5,4.18,10.55,6.95,3.33,3.02,6.08,6.57,8.17,10.53,.86,1.64,.23,3.66-1.4,4.52-.5,.26-1.03,.39-1.56,.39h0Z"/>
      <path id="thread-5" class="cls-2" d="M104.84,107.26c-1.86,0-3.63-.17-5.29-.5-3.19-.64-5.83-1.86-7.85-3.64-2.66-2.35-4.06-5.54-4.06-9.23,0-6.21,4.62-11.5,12.68-14.51,1.73-.65,3.66,.23,4.31,1.96,.65,1.73-.23,3.66-1.96,4.31-2.51,.94-8.33,3.62-8.33,8.24,0,1.77,.59,3.15,1.8,4.22,1.81,1.6,4.95,2.46,8.74,2.46,1.11,0,2.27-.07,3.46-.22,1.83-.23,3.51,1.07,3.74,2.91,.23,1.83-1.07,3.51-2.91,3.74-1.49,.19-2.93,.28-4.32,.28h0Z"/>
      <path id="thread-4" class="cls-2" d="M121.36,103.21c-1.25,0-2.44-.7-3.02-1.9-.8-1.67-.1-3.67,1.57-4.47,6.05-2.9,11.18-7.16,14.84-12.3,4.27-6,6.44-12.99,6.44-20.77,0-.3,0-.6,0-.9-.04-1.85,1.43-3.38,3.27-3.42,.02,0,.05,0,.07,0,1.81,0,3.31,1.45,3.34,3.27,0,.34,.01,.69,.01,1.04,0,4.73-.7,9.29-2.09,13.56-1.28,3.96-3.17,7.69-5.59,11.1-4.32,6.06-10.33,11.06-17.4,14.45-.47,.22-.96,.33-1.45,.33h0Z"/>
      <path id="thread-3" class="cls-2" d="M142.15,53.27c-1.36,0-2.63-.83-3.14-2.18-1.99-5.33-5.32-9.75-9.62-12.8-4.29-3.04-9.47-4.65-14.98-4.65-1.06,0-2.12,.04-3.15,.11-.08,0-.16,0-.23,0-1.74,0-3.21-1.35-3.34-3.12-.13-1.84,1.26-3.44,3.11-3.57,1.18-.08,2.4-.12,3.62-.12,14.02,0,25.85,8.36,30.87,21.8,.65,1.73-.23,3.66-1.96,4.31-.39,.14-.78,.21-1.17,.21h0Z"/>
      <path id="thread-2" class="cls-2" d="M101.3,32.05c-.66-1.73-2.59-2.6-4.32-1.94-5.18,1.97-9.79,4.7-14.18,7.54,.6,2.18,1.01,4.57,1.25,7.18,5-3.3,9.81-6.37,15.31-8.47,1.73-.66,2.6-2.59,1.94-4.32h0Z"/>
      <path id="thread-1" class="cls-2" d="M33.09,47.99c3.49,2.95,8.32,4.44,12.94,4.73,3.63,.21,7.23-.27,10.76-1.23,1.78-.49,3.62,.56,4.11,2.35s-.56,3.62-2.35,4.11c-3.69,1.01-7.59,1.58-11.46,1.51-6.14-.12-12.36-1.86-17.34-5.56-.33-.25-.65-.5-.96-.78-.06-.05-.18-.16-.23-.21-1.45-1.25-1.56-3.52-.2-4.88,1.3-1.32,3.42-1.33,4.73-.04h0Z"/>
    </g>
    <g>
      <path class="cls-2" d="M228.84,102.89c0,3.59-1.28,6.64-3.85,9.13-2.57,2.5-6.37,3.75-11.41,3.75h-21.28v-4.48h5.74v-36.54h-5.74v-4.48h20.93c4.62,0,8.06,1,10.33,3.01,2.26,2.01,3.39,4.64,3.39,7.91,0,2.43-.72,4.55-2.17,6.37-1.45,1.82-3.34,2.96-5.67,3.43v.28c3.31,.51,5.76,1.86,7.35,4.03,1.59,2.17,2.38,4.7,2.38,7.59Zm-7.35-20.51c0-2.85-.8-4.83-2.42-5.95-1.61-1.12-3.84-1.68-6.69-1.68h-9.24v15.4h9.03c2.71,0,4.94-.67,6.69-2s2.62-3.25,2.62-5.77Zm1.89,20.23c0-2.57-.76-4.58-2.27-6.05-1.52-1.47-3.77-2.21-6.75-2.21h-11.2v16.94h9.52c3.27,0,5.87-.69,7.81-2.06,1.94-1.38,2.9-3.58,2.9-6.62Z"/>
      <path class="cls-2" d="M237.31,87c1.63-1.07,3.36-1.84,5.18-2.31,1.82-.47,3.76-.7,5.81-.7,7.42,0,11.13,3.48,11.13,10.43v14.84c0,2.24,.89,3.36,2.66,3.36,.79,0,1.49-.14,2.1-.42l.07,3.22c-1.26,.7-2.61,1.05-4.06,1.05-3.69,0-5.58-2.1-5.67-6.3v-.14c-.98,1.68-2.37,3.17-4.17,4.48-1.8,1.31-3.96,1.96-6.47,1.96-2.05,0-4.14-.63-6.26-1.89-2.12-1.26-3.19-3.55-3.19-6.86,0-3.92,1.55-6.5,4.66-7.74,3.1-1.24,6.41-1.85,9.91-1.85,.93,0,1.88,.02,2.83,.07,.96,.05,1.85,.12,2.69,.21v-2.8c0-2.24-.48-4.06-1.43-5.46-.96-1.4-2.83-2.1-5.63-2.1-2.29,0-4.29,.42-6.02,1.26l-1.19,5.39-4.06-.49,1.12-7.21Zm17.22,17.08v-2.38c-.89-.05-1.82-.12-2.8-.21-.98-.09-1.98-.14-3.01-.14-2.33,0-4.45,.36-6.33,1.08-1.89,.72-2.83,2.3-2.83,4.72,0,2.01,.63,3.38,1.89,4.13,1.26,.75,2.57,1.12,3.92,1.12,2.15,0,4.17-.75,6.06-2.24,1.89-1.49,2.93-3.52,3.11-6.09Z"/>
      <path class="cls-2" d="M295.41,105.27c-.42,2.71-1.64,5.25-3.67,7.63s-5.19,3.57-9.49,3.57-7.72-1.39-10.29-4.17c-2.57-2.78-3.85-6.66-3.85-11.66,0-4.29,1.21-8.14,3.64-11.55,2.43-3.41,6.07-5.11,10.92-5.11,2.05,0,3.94,.23,5.67,.7,1.73,.47,3.38,1.31,4.97,2.52l1.19,7.49-4.06,.49-1.19-5.25c-1.87-1.17-4.08-1.75-6.65-1.75-3.31,0-5.69,1.19-7.14,3.57-1.45,2.38-2.17,5.25-2.17,8.61,0,3.73,.82,6.65,2.45,8.75,1.63,2.1,3.99,3.15,7.07,3.15,4.67,0,7.47-2.64,8.4-7.91l4.2,.91Z"/>
      <path class="cls-2" d="M333.42,115.77h-14.7v-3.99h4.69l-8.54-10.57h-5.53v10.57h4.48v3.99h-14.84v-3.99h5.39v-40.18h-5.53v-3.99h10.5v29.82h5.6l7.14-8.82h-4.83v-3.99h14.56v3.99h-4.76l-8.33,10.29,10.29,12.88h4.41v3.99Z"/>
      <path class="cls-2" d="M362.12,106.74c0,3.03-1.27,5.41-3.81,7.14-2.54,1.73-5.68,2.59-9.42,2.59-2.19,0-4.38-.29-6.54-.88s-3.93-1.32-5.29-2.21l.98-7.07,3.92,.42-.21,4.13c2.15,1.03,4.46,1.54,6.93,1.54,2.19,0,4.14-.43,5.84-1.29,1.7-.86,2.55-2.18,2.55-3.96s-.65-2.94-1.96-3.64-2.93-1.21-4.86-1.54c-1.94-.33-3.89-.72-5.85-1.19-1.96-.47-3.59-1.27-4.9-2.41-1.31-1.14-1.96-2.93-1.96-5.36,0-3.31,1.21-5.65,3.64-7,2.43-1.35,5.06-2.03,7.91-2.03,2.15,0,4.17,.28,6.05,.84,1.89,.56,3.49,1.24,4.79,2.03l.77,7.28-4.06,.49-.77-5.04c-1.96-1.03-4.08-1.54-6.37-1.54-1.96,0-3.57,.37-4.83,1.12-1.26,.75-1.89,1.91-1.89,3.5s.65,2.79,1.96,3.46c1.31,.68,2.92,1.17,4.83,1.47,1.91,.3,3.83,.69,5.74,1.16,1.91,.47,3.52,1.29,4.83,2.48,1.31,1.19,1.96,3.02,1.96,5.5Z"/>
      <path class="cls-2" d="M390.47,107.37c-.84,6.07-4.13,9.1-9.87,9.1-3.13,0-5.52-.89-7.17-2.66-1.66-1.77-2.49-4.18-2.49-7.21v-18.06h-5.04v-3.92h5.04v-10.01h4.9v10.01h12.18v3.92h-12.18v17.43c0,1.87,.41,3.37,1.22,4.51,.82,1.14,2.16,1.71,4.03,1.71,1.21,0,2.34-.37,3.39-1.12,1.05-.75,1.81-2.38,2.28-4.9l3.71,1.19Z"/>
      <path class="cls-2" d="M409.02,115.77h-15.82v-3.99h5.46v-23.17h-5.6v-3.99h10.5v27.16h5.46v3.99Zm-10.85-39.2v-6.37h5.32v6.37h-5.32Z"/>
      <path class="cls-2" d="M436.04,107.37c-.84,6.07-4.13,9.1-9.87,9.1-3.13,0-5.52-.89-7.17-2.66-1.66-1.77-2.49-4.18-2.49-7.21v-18.06h-5.04v-3.92h5.04v-10.01h4.9v10.01h12.18v3.92h-12.18v17.43c0,1.87,.41,3.37,1.22,4.51,.82,1.14,2.16,1.71,4.03,1.71,1.21,0,2.34-.37,3.39-1.12,1.05-.75,1.81-2.38,2.28-4.9l3.71,1.19Z"/>
      <path class="cls-2" d="M466.35,105.27c-.42,2.71-1.64,5.25-3.67,7.63s-5.19,3.57-9.49,3.57-7.72-1.39-10.29-4.17c-2.57-2.78-3.85-6.66-3.85-11.66,0-4.29,1.21-8.14,3.64-11.55,2.43-3.41,6.07-5.11,10.92-5.11,2.05,0,3.94,.23,5.67,.7,1.73,.47,3.38,1.31,4.97,2.52l1.19,7.49-4.06,.49-1.19-5.25c-1.87-1.17-4.08-1.75-6.65-1.75-3.31,0-5.69,1.19-7.14,3.57-1.45,2.38-2.17,5.25-2.17,8.61,0,3.73,.82,6.65,2.45,8.75,1.63,2.1,3.99,3.15,7.07,3.15,4.67,0,7.47-2.64,8.4-7.91l4.2,.91Z"/>
      <path class="cls-2" d="M507.3,115.77h-15.82v-3.99h5.46v-14.49c0-3.36-.69-5.73-2.07-7.1-1.38-1.38-3.14-2.07-5.28-2.07-2.71,0-4.91,.92-6.62,2.77-1.7,1.84-2.6,3.91-2.7,6.19v14.7h5.39v3.99h-15.75v-3.99h5.39v-40.18h-5.39v-3.99h10.36v22.61c2.29-4.15,5.93-6.23,10.92-6.23,3.03,0,5.58,.93,7.63,2.8,2.05,1.87,3.08,4.88,3.08,9.03v15.96h5.39v3.99Z"/>
    </g>
  </g>
</svg>